<<<<<<< HEAD
<mxfile host="Electron" modified="2021-04-28T22:15:25.989Z" agent="5.0 (Windows NT 10.0; Win64; x64) AppleWebKit/537.36 (KHTML, like Gecko) draw.io/14.5.1 Chrome/89.0.4389.82 Electron/12.0.1 Safari/537.36" version="14.5.1" etag="tbF1GE35z3-Zh8mfl1YU" type="device"><diagram id="UYXEVi04k1pqfMQLRLxe" name="Flujo">7VrZcuI4FP0aHpOyLS/wGCBLTXVmktCpnp43YQtbibFoWWbpr58rW8YrhEnYipquSrV1tfrcc66uLDpoMF3eczwLHplHwo6hecsOGnYMQ3eQBv9Jy0pZNN3ILD6nnrIVhhH9TfKGyppQj8SVhoKxUNBZ1eiyKCKuqNgw52xRbTZhYXXWGfZJwzBycdi0/qCeCJRVt3tFxQOhfqCm7hpOVjHFeWP1JnGAPbYomdBtBw04YyJ7mi4HJJTo5bhk/e421K4XxkkkdunQcwLrhjp/Wuhl/hTcoz/40r9So8xxmKgX7hh2COP1A6iyffn0nNDf0OYeT0leCbMU9bnRo/Pc9BpBh7eE+Ez6nsh1cuInkcAxPK/gj5N4lpA4M4CHpa/CEBCCIpG9XyMqVtelCUvDK0DFKveSIMt0zWIagkGHx1hw9k4GLGQcLBGLoGV/QsOwZopn2KWRDwarKH1nMzBcAaCovwioICOwy6kWwHKwsTnhkzB1ZkA9D9aL+pwlkUck1tp6hWXn5EgTDostmZSz7gmbEsElNKrWVLxZVYuLEgt7yhaUCahsWBHfXw9ccAMeFD3+A1WMjVTBcgmcTFKr/SthmS+ElOiNnNS486kIkvG1y6ZQwOD3gPyWoeLuF5DLz5ilOtZpNWEAYdnbeUNZcRWnEQNm0XR7tmyO8kJmLKaCcbpm1j0VD8m4xKxshuqscpkHoBsOqQ9sGbrACwL2vuQDhXBzoyqmwCc5TSvv9s6xnvUxyZwWkhl7INlmPimPuwq6slORlv5r+vkRU+nbRxIlGz1b82IVzTa8Sw7eA9jdKtaG1gK2fShFv7F/nNdxH30Ph/2H5/lKNxctih4JzMXXgIrfiXCDCkUbELUAuTkMGjXYTLMJm9ECm30o2HTUQIh4kDSoIuMiYD6LcHhbWPtuwudrCAtAG4gVvb+xdBeSLd6IECuVG+FEsDZqyiVshxhWzBLuki2vpqAFFvhEbGlntbuMkxALOq+uY+/4mw3avuDIkzuL9ixTCsrSKE8iwnFWqHkLMrGZfASEcBiSkPkcTwHIGeEUlijjcrXuqaj4iP4TuiR5Gqs3Qva+xYF6VXEg1CKObos4egeLKVoD7ksRh7WjOHT7i+pIu95wjlelBjNGIxGXRn6ShoIKdn0rV3HybkN709naHh6yFRRUWL/K59lhNaSbKzbeqFJ3FVIgBEcfi2+cUefbeG3A7rufEuqvRMAwuSpjJVDr4Ap19Nr2pTd3/eNu+sZ5CRRw5Ku/Vf+08FMWrq28OFyWK4erim/2ImxnR2FvcvVxtj2noZ2bKF4QfqnKMWsHYMtp7m1HVY6++WPJ+NOH1l7boXUkEo+kA4zgoEg+PqqOz/yoeui8R2/hRmves4+Dazs5eucaVotI+rMSSNvDaloq5bv7jrVZcrRDsHVOGWvzVZakPmSV88XFHinMWsJitknrqOdtwzxTaemdU2Us66uQMz2LaLWtWzvC2cI4swh8CncbX42an3O3XXN3b/vRs9He3t7eqdPJPgadmtle6evSgHEurxvrjOMBm46T+OOgftggbtURbgnibenRwXJndLnfTI2dj4/dU6Y0Rsv50fMqOY0mqjmONmKhdECD5BVXHPk+wK7fi3ZPnZ8g63K53d2R29l355Nxu7sxVsebaXwZn0m6dT203I8d9TMJsi9WDmjX+7GTqgE5/zsAfXWvbc9Eda2WWCHTvraqo2RrUx1rrtxDXoqa158DNpVglvbuONU/yH+n7fw8ctau5uRQ5nclrVu71Yxla+P+tdTcWW4jmTVlv4b7SmK0B8h69etffc3GA2RDUCx+rZjRufjRJ7r9Fw==</diagram></mxfile>
=======
<mxfile>
    <diagram id="UYXEVi04k1pqfMQLRLxe" name="Flujo">
        <mxGraphModel dx="1165" dy="688" grid="1" gridSize="10" guides="1" tooltips="1" connect="1" arrows="1" fold="1" page="1" pageScale="1" pageWidth="1169" pageHeight="827" math="0" shadow="0">
            <root>
                <mxCell id="0"/>
                <mxCell id="1" parent="0"/>
                <mxCell id="97h5Ai7N53RvPhG3Jrxg-1" value="&lt;h1&gt;Quiz Game&lt;/h1&gt;&lt;div&gt;Un juego de preguntas y respuestas desarrollado en Unity.&lt;/div&gt;" style="text;html=1;strokeColor=none;fillColor=none;spacing=5;spacingTop=-20;whiteSpace=wrap;overflow=hidden;rounded=0;" parent="1" vertex="1">
                    <mxGeometry x="40" y="40" width="190" height="80" as="geometry"/>
                </mxCell>
                <mxCell id="97h5Ai7N53RvPhG3Jrxg-2" value="&lt;a href=&quot;https://github.com/aesthezel/quizgame&quot;&gt;&lt;font style=&quot;font-size: 16px&quot;&gt;Repositorio en GitHub&lt;/font&gt;&lt;/a&gt;" style="text;html=1;strokeColor=none;fillColor=none;align=center;verticalAlign=middle;whiteSpace=wrap;rounded=0;" parent="1" vertex="1">
                    <mxGeometry x="950" y="40" width="170" height="20" as="geometry"/>
                </mxCell>
                <mxCell id="2" value="&lt;font color=&quot;#000000&quot;&gt;Main Menu&lt;/font&gt;" style="rounded=0;whiteSpace=wrap;html=1;fillColor=#b1ddf0;strokeColor=#10739e;" vertex="1" parent="1">
                    <mxGeometry x="80" y="240" width="160" height="80" as="geometry"/>
                </mxCell>
            </root>
        </mxGraphModel>
    </diagram>
</mxfile>
>>>>>>> f89bbab4a177812647dc1989a2aa8d38b25ad1e8
